<?xml version="1.0" standalone="no"?>
<!DOCTYPE svg PUBLIC "-//W3C//DTD SVG 20010904//EN"
 "http://www.w3.org/TR/2001/REC-SVG-20010904/DTD/svg10.dtd">
<svg version="1.0" xmlns="http://www.w3.org/2000/svg"
 width="480.000000pt" height="480.000000pt" viewBox="0 0 480.000000 480.000000"
 preserveAspectRatio="xMidYMid meet">
<metadata>
Created by potrace 1.11, written by Peter Selinger 2001-2013
</metadata>
<g transform="translate(0.000000,480.000000) scale(0.100000,-0.100000)"
fill="#000000" stroke="none">
<path d="M1672 4619 l3 -144 67 -7 c138 -13 269 -78 372 -183 103 -105 170
-244 183 -378 l6 -63 -68 -19 c-157 -42 -260 -124 -291 -231 -17 -60 -16 -86
19 -345 1 -9 -57 -70 -138 -144 -126 -116 -149 -144 -129 -164 2 -2 82 -18
178 -35 97 -18 178 -35 181 -37 3 -3 14 -59 26 -125 27 -151 38 -546 20 -703
-15 -125 -62 -299 -131 -486 -50 -135 -52 -143 -48 -226 3 -73 9 -96 41 -163
38 -80 132 -187 176 -201 21 -6 21 -12 21 -336 l0 -330 -71 -75 c-60 -63 -69
-77 -58 -90 11 -13 20 -7 71 43 l58 57 0 -102 c0 -95 1 -102 20 -102 19 0 20
7 20 102 l0 102 58 -57 c49 -49 61 -56 71 -44 9 12 -2 29 -59 90 l-70 75 0
317 c0 281 2 316 15 311 75 -29 141 -40 233 -40 l102 -1 0 -200 -1 -200 -69
-75 c-60 -65 -67 -77 -55 -89 13 -13 22 -7 69 45 l55 59 1 -102 c0 -96 1 -103
20 -103 19 0 20 7 20 102 l0 102 58 -57 c47 -47 61 -55 70 -45 9 11 -4 31 -58
90 l-70 76 0 205 0 205 38 12 c135 44 255 141 305 249 38 81 48 199 23 271 -8
24 -14 46 -12 47 2 2 79 11 172 19 93 9 171 18 173 20 2 2 1 15 -3 29 -7 29
-22 30 -161 15 -44 -4 -81 -7 -83 -5 -2 2 58 38 132 80 75 43 136 79 136 82 0
13 -22 43 -32 43 -10 0 -208 -110 -267 -149 -24 -15 -24 -15 -11 9 7 14 40 66
72 116 32 50 58 96 58 102 0 15 -40 36 -50 25 -4 -4 -46 -71 -95 -148 -48 -77
-89 -141 -90 -143 -6 -7 -91 91 -109 127 -29 54 -43 121 -66 294 -45 351 -15
653 116 1187 79 321 82 420 16 509 -33 45 -134 108 -204 129 -60 18 -68 27
-68 90 0 61 -31 186 -69 278 -131 319 -423 535 -769 569 l-73 7 3 -143z m891
-843 c128 -25 243 -99 268 -173 18 -57 4 -171 -50 -390 -134 -540 -169 -878
-126 -1203 36 -273 58 -339 145 -435 79 -87 105 -151 105 -255 0 -78 -3 -90
-34 -148 -40 -74 -87 -117 -179 -165 -86 -44 -147 -59 -247 -58 -200 0 -344
81 -421 236 -51 104 -56 182 -19 285 143 397 156 457 162 773 7 361 -2 434
-101 851 -76 315 -87 454 -43 529 74 126 317 195 540 153z m-569 -651 c8 -32
14 -60 13 -61 -1 -1 -54 -16 -117 -33 l-115 -30 100 93 c55 52 101 93 102 93
0 -1 8 -29 17 -62z m35 -142 c13 -45 14 -63 4 -63 -5 0 -57 9 -117 20 -60 11
-112 20 -115 21 -8 1 190 57 206 58 7 1 17 -16 22 -36z"/>
<path d="M2309 3590 c-68 -36 -119 -115 -119 -185 0 -74 70 -173 137 -196 57
-19 145 -7 192 25 45 32 91 112 91 160 0 82 -58 174 -127 203 -46 19 -131 16
-174 -7z m173 -42 c112 -63 111 -231 -3 -288 -114 -58 -243 19 -243 146 0 126
135 204 246 142z"/>
<path d="M2362 3448 c-7 -7 -12 -24 -12 -38 0 -33 17 -50 50 -50 33 0 50 17
50 50 0 33 -17 50 -50 50 -14 0 -31 -5 -38 -12z"/>
<path d="M2476 1633 c-3 -8 -6 -16 -6 -18 0 -2 33 -21 72 -42 84 -44 172 -126
208 -196 27 -51 28 -51 50 -37 13 8 12 13 -4 42 -61 107 -168 206 -268 247
-40 17 -47 17 -52 4z"/>
<path d="M2502 1438 c-18 -18 -15 -23 26 -50 21 -14 63 -51 94 -83 52 -53 78
-63 78 -31 0 14 -107 119 -156 153 -23 17 -34 19 -42 11z"/>
<path d="M2431 1351 c-9 -17 -6 -23 24 -41 19 -12 45 -34 59 -51 26 -30 41
-36 51 -19 9 15 -27 61 -78 98 -44 31 -46 32 -56 13z"/>
<path d="M2352 1284 c-12 -22 57 -87 82 -78 24 9 20 18 -24 58 -46 41 -46 41
-58 20z"/>
</g>
</svg>
